<?xml version="1.0" encoding="UTF-8" standalone="no"?>
<!-- Created with Inkscape (http://www.inkscape.org/) -->

<svg
   width="210mm"
   height="297mm"
   viewBox="0 0 210 297"
   version="1.1"
   id="svg1"
   inkscape:version="1.3.2 (091e20e, 2023-11-25)"
   sodipodi:docname="Islands.svg"
   xmlns:inkscape="http://www.inkscape.org/namespaces/inkscape"
   xmlns:sodipodi="http://sodipodi.sourceforge.net/DTD/sodipodi-0.dtd"
   xmlns="http://www.w3.org/2000/svg"
   xmlns:svg="http://www.w3.org/2000/svg">
  <sodipodi:namedview
     id="namedview1"
     pagecolor="#ffffff"
     bordercolor="#111111"
     borderopacity="1"
     inkscape:showpageshadow="0"
     inkscape:pageopacity="0"
     inkscape:pagecheckerboard="1"
     inkscape:deskcolor="#d1d1d1"
     inkscape:document-units="mm"
     inkscape:zoom="1.0170861"
     inkscape:rotation="90"
     inkscape:cx="424.74282"
     inkscape:cy="507.8233"
     inkscape:window-width="1728"
     inkscape:window-height="1051"
     inkscape:window-x="0"
     inkscape:window-y="38"
     inkscape:window-maximized="1"
     inkscape:current-layer="layer1" />
  <defs
     id="defs1">
    <inkscape:path-effect
       effect="simplify"
       id="path-effect869"
       is_visible="true"
       lpeversion="1.3"
       threshold="5000"
       steps="1"
       smooth_angles="360"
       helper_size="0"
       simplify_individual_paths="false"
       simplify_just_coalesce="false" />
    <inkscape:path-effect
       effect="simplify"
       id="path-effect868"
       is_visible="true"
       lpeversion="1.3"
       threshold="5000"
       steps="1"
       smooth_angles="360"
       helper_size="0"
       simplify_individual_paths="false"
       simplify_just_coalesce="false" />
    <inkscape:path-effect
       effect="simplify"
       id="path-effect867"
       is_visible="true"
       lpeversion="1.3"
       threshold="5000"
       steps="1"
       smooth_angles="360"
       helper_size="0"
       simplify_individual_paths="false"
       simplify_just_coalesce="false" />
    <inkscape:path-effect
       effect="simplify"
       id="path-effect866"
       is_visible="true"
       lpeversion="1.3"
       threshold="5000"
       steps="1"
       smooth_angles="360"
       helper_size="0"
       simplify_individual_paths="false"
       simplify_just_coalesce="false" />
    <inkscape:path-effect
       effect="simplify"
       id="path-effect865"
       is_visible="true"
       lpeversion="1.3"
       threshold="5000"
       steps="1"
       smooth_angles="360"
       helper_size="0"
       simplify_individual_paths="false"
       simplify_just_coalesce="false" />
    <inkscape:path-effect
       effect="simplify"
       id="path-effect864"
       is_visible="true"
       lpeversion="1.3"
       threshold="5000"
       steps="1"
       smooth_angles="360"
       helper_size="0"
       simplify_individual_paths="false"
       simplify_just_coalesce="false" />
    <inkscape:path-effect
       effect="simplify"
       id="path-effect3"
       is_visible="true"
       lpeversion="1.3"
       threshold="5000"
       steps="1"
       smooth_angles="360"
       helper_size="0"
       simplify_individual_paths="false"
       simplify_just_coalesce="false" />
    <inkscape:path-effect
       effect="simplify"
       id="path-effect2"
       is_visible="true"
       lpeversion="1.3"
       threshold="5000"
       steps="1"
       smooth_angles="360"
       helper_size="0"
       simplify_individual_paths="false"
       simplify_just_coalesce="false" />
    <inkscape:path-effect
       effect="simplify"
       id="path-effect1"
       is_visible="true"
       lpeversion="1.3"
       threshold="5000"
       steps="1"
       smooth_angles="360"
       helper_size="0"
       simplify_individual_paths="false"
       simplify_just_coalesce="false" />
  </defs>
  <g
     inkscape:groupmode="layer"
     id="layer2"
     inkscape:label="TidalFlat"
     sodipodi:insensitive="true">
    <path
       style="fill:#0000ff;fill-opacity:1;stroke-width:2;stroke-linecap:round;stroke-linejoin:round"
       d="m 180,7.0996094 c -13.36156,1.9484238 -26.36435,5.6912636 -39.35056,9.2931176 -6.98073,2.079295 -14.05939,4.070418 -20.54754,7.451805 -4.85041,3.075161 -7.11342,9.645524 -5.16135,15.051077 1.32761,3.839321 4.58007,6.820544 8.33362,8.24889 3.17844,1.266991 6.63292,1.425403 9.97097,1.996412 5.74034,0.870133 11.54751,1.680823 17.03306,3.661249 2.02933,0.862932 4.01062,2.252134 4.8935,4.345236 1.31592,3.675983 -0.85464,8.129634 -4.49787,9.467838 -4.53338,2.149155 -9.43281,3.324719 -14.20803,4.793728 -9.91015,2.713693 -20.28121,4.240696 -30.55511,3.198518 C 97.48068,73.715402 89.346785,70.969184 81.718031,67.345958 74.050204,63.959978 66.271524,60.775065 58.917103,56.732186 56.04421,54.875574 53.970844,52.057457 52.252722,49.151927 c -1.677726,-2.588498 -3.478475,-5.255524 -6.154126,-6.908569 -4.81808,-2.980169 -11.544153,-2.31376 -15.711281,1.514434 -3.350837,2.970319 -4.96468,7.67457 -4.37347,12.087995 0.315052,3.978592 1.149238,7.906793 1.239019,11.904885 0.24391,4.16118 -0.01228,8.332298 0.152629,12.494801 0.474742,5.701549 2.310753,11.155674 3.778047,16.650443 0.598948,3.166914 -0.19226,6.414154 -1.424615,9.333154 -2.324234,6.5305 -5.321113,12.87422 -6.630019,19.7221 -1.143762,6.56936 -0.763509,13.26223 -1.068038,19.89363 -0.203866,8.88084 -0.884224,17.74089 -1.31568,26.61134 -0.111732,4.12227 0.296025,8.23538 0.810087,12.32005 1.167976,10.46984 1.758981,20.99143 2.363035,31.5054 0.504092,8.31867 1.106746,16.64964 2.471364,24.87822 0.359514,1.90614 0.748824,3.93315 2.076514,5.43221 0.933472,1.12929 2.299371,1.87543 3.758161,2.03207 1.869687,0.26229 3.727655,-0.30314 5.433475,-1.0212 12.050897,-4.3353 24.066497,-8.76786 36.103415,-13.14171 3.787269,-1.38159 7.574538,-2.76318 11.361808,-4.14477 -12.279703,2.7517 -24.552101,5.53582 -36.826172,8.3125 14.640206,-7.43739 29.293536,-14.84891 43.955078,-22.24414 -9.091094,-5.704 -19.030289,-9.83648 -28.830078,-14.13477 -1.533034,-0.80921 -2.802572,-2.11503 -3.544922,-3.68359 3.00557,-1.68323 6.330151,-2.66478 9.443909,-4.11494 5.786592,-2.40237 11.580878,-4.78856 17.433044,-7.02764 -0.04679,-0.61239 -0.786789,-0.63894 -1.218781,-0.8616 -4.350147,-1.75573 -9.165052,-1.93995 -13.77668,-1.40777 -8.367893,0.72249 -16.760094,1.15191 -25.156883,1.33187 7.535068,-2.0542 15.106069,-3.98674 22.748438,-5.60242 6.383503,-1.42423 12.8004,-2.71952 19.278264,-3.63766 3.722891,-0.57569 7.462044,-1.10749 11.1184,-2.01146 1.113726,-0.53125 1.629786,-1.72922 2.344956,-2.66144 0.82281,-1.26577 1.72653,-2.50387 2.34263,-3.88969 0.2219,-0.83279 -0.15774,-1.71552 -0.7923,-2.26288 -1.56865,-1.761 -3.26036,-3.40714 -4.911497,-5.08967 -5.049482,-4.98015 -10.371758,-9.70527 -15.013359,-15.08156 -2.558726,-3.35335 -4.652373,-7.02624 -7.050904,-10.49066 -7.085995,-10.75101 -14.171991,-21.50202 -21.257987,-32.25303 0.925681,-3.12537 4.724263,-4.983495 7.765625,-3.830079 7.986091,2.087289 15.745464,5.140359 23.955236,6.296179 7.149571,0.9703 14.344966,1.85443 21.310966,3.79951 5.12297,1.18871 10.43794,2.0235 15.69434,1.31143 7.73831,-0.88071 15.28438,-3.08802 23.07832,-3.53926 4.32782,-0.43421 8.76523,-0.97063 12.71305,-2.92162 4.86497,-2.36844 8.98896,-5.928352 13.27178,-9.175392 6.40845,-5.039184 12.86054,-10.1688 18.02209,-16.532699 3.78687,-4.803012 6.18551,-10.512522 8.14192,-16.260168 2.39529,-6.932014 4.50799,-13.970155 6.11154,-21.129343 0.83815,-4.072789 1.45206,-8.266116 0.96336,-12.424307 C 205.36966,21.33081 200.34052,14.315084 193.52239,10.514901 189.41445,8.2257871 184.70096,7.0438037 180,7.0996094 Z M 52.503906,123.45312 c 0.777214,0.49098 1.444229,1.17955 2.06364,1.8657 1.983287,2.28096 3.331089,5.01124 4.841565,7.60722 3.235697,5.74322 6.487132,11.54478 8.553341,17.83193 0.786498,3.07542 -0.06072,6.42708 -1.884327,8.97836 -1.248885,1.76004 -3.018117,3.12717 -5.018678,3.92913 -4.464081,2.14861 -9.917038,2.41896 -14.432912,0.26946 -2.153468,-1.05533 -4.105964,-2.86152 -4.729401,-5.24414 -0.410163,-2.08972 0.416112,-4.13497 1.018646,-6.09945 3.016975,-9.56242 6.007777,-19.1332 9.076408,-28.67922 0.09885,-0.20414 0.254025,-0.46139 0.511718,-0.45899 z m -5.738281,112.56446 c 0.485555,-0.55952 0.967957,-1.12193 1.46875,-1.66797 -0.489583,0.55599 -0.979167,1.11198 -1.46875,1.66797 z"
       id="path868" />
  </g>
  <g
     inkscape:label="Islands"
     inkscape:groupmode="layer"
     id="layer1"
     style="display:inline">
    <path
       id="path867"
       style="fill:#000000;fill-opacity:1;stroke-width:2;stroke-linecap:round;stroke-linejoin:round"
       d="m 89.648438,184.88281 c -13.873698,1.35482 -27.747396,2.70964 -41.621094,4.06446 -0.417326,0.11313 -0.72491,0.43824 -1.00586,0.74804 -0.404478,0.16187 -0.765829,-0.20514 -0.964843,-0.51758 -0.973469,-1.12206 -2.070741,-2.12964 -3.216797,-3.07226 -0.986393,-0.40565 -2.051803,-0.60465 -3.113193,-0.66894 -1.521573,-0.0587 -3.03684,0.17271 -4.529682,0.44154 -0.674379,0.13733 -1.338783,0.31885 -1.99775,0.51646 -1.464223,1.14416 -2.783055,2.45798 -4.165233,3.69605 -0.332836,0.32764 -0.83851,0.28622 -1.26057,0.40305 -3.722238,0.71906 -7.525166,0.76832 -11.294653,1.04939 -0.640708,0.039 -1.281415,0.0781 -1.922122,0.11714 -0.845276,0.32499 -1.526134,1.04995 -1.792969,1.91601 0.229128,0.73288 1.020751,1.11996 1.746741,1.13596 4.109539,0.77938 8.238354,1.54988 12.216149,2.8699 1.551418,0.86279 2.707527,2.24062 4.026918,3.39696 0.434337,0.38997 0.812656,0.86149 1.320927,1.15671 2.142174,1.00299 4.538211,1.19808 6.86596,1.35542 1.393134,0.0951 2.824464,-0.0268 4.124268,-0.567 0.884939,-0.32293 1.794284,-0.78311 2.315979,-1.59934 0.06146,-0.15562 0.121315,-0.6168 0.364525,-0.39214 0.199821,0.26155 -0.016,0.59899 0.05365,0.89272 0.07526,0.70255 0.591486,1.25207 1.143593,1.64348 1.039859,0.86213 2.351801,1.27375 3.629283,1.63828 10.504791,3.401 21.036653,6.71887 31.596867,9.94361 3.934826,1.17089 7.9174,2.18276 11.929124,3.05083 0.205602,0.0781 0.543221,0.15226 0.642578,-0.11523 0.06861,-0.34309 -0.335516,-0.45328 -0.573267,-0.56801 -3.837458,-1.8665 -7.738946,-3.59664 -11.615484,-5.37949 -9.952486,-4.53396 -19.937653,-8.99579 -29.919207,-13.46518 -0.583806,-0.25046 -1.167611,-0.50092 -1.751417,-0.75138 -0.231074,-0.18182 -0.03602,-0.57903 0.232422,-0.58789 1.100955,-0.35483 2.261247,-0.4503 3.391239,-0.67616 10.005066,-1.70923 20.021674,-3.34982 30.032032,-5.02761 1.880394,-0.31359 3.760788,-0.62718 5.641182,-0.94077 2.670326,-1.09891 5.330762,-2.22157 7.992188,-3.34179 0.26494,-0.28977 -0.01101,-0.83303 -0.400391,-0.79493 -2.614558,-0.53197 -5.228911,-1.06508 -7.847656,-1.57617 -0.09115,0.002 -0.182292,0.004 -0.273437,0.006 z m -59.686892,40.86103 c -1.710446,0.64602 -2.004957,2.31444 -3.01849,3.64544 -2.084821,2.73789 -2.126662,5.46211 -0.355739,9.06958 0.263004,0.53576 0.578152,1.77456 1.046052,2.13087 0.525984,0.40052 0.73746,1.16803 1.243341,1.55333 0.701538,0.53411 4.543574,2.73545 5.67414,2.74375 2.07795,0.0151 4.545518,-0.89112 6.861149,-1.20458 0.815439,-0.11036 1.696628,-1.24225 2.518346,-1.23627 1.006481,0.007 2.241389,-0.8599 3.194592,-1.32783 5.433117,-2.66714 6.709491,-6.90172 5.977152,-12.30987 -0.0607,-0.4482 -0.668984,-0.90757 -0.665702,-1.35607 0.02236,-3.05513 -4.512027,-5.89429 -6.611053,-6.61112 -0.392248,-0.13389 -1.222294,0.0875 -1.641305,0.0846 -1.222992,-0.009 -4.753822,1.92417 -5.705887,1.59904 -0.210871,-0.0718 -1.582299,-3.04991 -2.248767,-3.27757 -2.641061,-0.90175 -3.132256,-6.76387 -5.482338,-8.55344 -0.460652,-0.35072 -0.395154,-1.3926 -0.855842,-1.7434 -0.234232,-0.17834 -1.288137,-1.42198 -1.144675,-1.84207 0.142248,-0.41659 1.466069,-0.49158 1.74346,-0.85587 0.659975,-0.86672 0.340955,-3.01561 -0.648053,-3.76869 -0.454036,-0.34574 -1.459777,-0.49849 -1.73293,-0.5918 -0.03412,-0.012 -6.850116,3.53248 -6.977382,3.90606 -0.332986,0.97531 -2.907598,2.89189 -1.965381,4.81124 0.03283,0.0669 0.364966,0.93085 0.475504,0.96863 0.192469,0.0656 0.286371,0.42019 0.47901,0.48607 0.377705,0.12889 3.056791,-1.53479 3.965926,-1.22574 0.310802,0.10619 0.393501,1.76041 0.852388,2.22608 0.293234,0.29749 0.92836,0.80074 1.1517,0.87693 0.08594,0.029 2.71817,7.00622 3.698245,9.00269 0.117848,0.24006 0.952176,1.53857 0.855872,1.74346 -0.178534,0.37957 -0.455553,0.70439 -0.683335,1.05659 z M 177.06112,14.773178 c -26.15214,3.015972 -49.68887,8.003249 -75.80029,11.363015 -12.507981,1.658238 -25.010523,3.529029 -37.297086,6.438461 -11.287704,2.808447 -22.242511,6.764203 -33.209571,10.598451 -0.610522,0.324422 -0.397291,1.287355 0.209744,1.493476 1.788344,0.6778 3.53903,1.464719 5.276799,2.267155 4.084293,1.921763 8.065808,4.166597 11.497972,7.122503 0.761965,0.633555 1.190142,1.598075 1.195148,2.58433 0.05377,1.29436 -0.540287,2.502105 -1.274654,3.529812 -2.84775,4.579863 -5.526585,9.261701 -8.288048,13.893531 -2.39085,4.052964 -4.767055,8.114547 -7.132853,12.182182 1.513346,-0.330782 2.372383,-1.736235 3.488146,-2.673987 L 56.550781,63.734375 c 3.182939,-1.629704 6.912256,-1.798449 10.388461,-1.247039 2.297156,0.587514 3.999299,2.582715 4.738492,4.770476 2.111926,4.088282 3.609811,8.451155 5.107422,12.791016 0.897764,1.054797 2.727218,0.867574 3.53125,-0.207031 l 6.173828,-4.123047 c 2.274059,-0.09323 4.548968,-0.164102 6.824219,-0.220703 2.20984,1.767701 4.285181,3.693968 6.351563,5.625 0.677194,2.091041 0.283052,4.308439 0.421874,6.458984 0.53239,0.994065 2.06233,0.890377 2.70123,0.0628 2.15687,-1.783868 4.27582,-3.616406 6.51557,-5.297174 0.95998,-0.272461 1.98018,-0.09337 2.94486,0.06405 3.22371,0.684117 5.95367,3.142607 7.106,6.212311 0.76379,1.640512 1.42119,3.327722 2.16398,4.977544 1.16695,0.865982 2.9439,0.197746 3.52401,-1.059527 3.29024,-4.19351 6.57264,-8.395887 10.03458,-12.450238 1.14963,-0.767137 2.81606,-0.719827 3.86133,0.210937 0.81176,2.271737 0.88946,4.73177 0.75302,7.116996 -0.16422,2.213497 -0.68803,4.382404 -1.10411,6.552049 0.14655,1.115882 1.72776,1.580674 2.51682,0.820492 3.10737,-1.960716 6.12795,-4.064401 8.96001,-6.408341 5.34314,-4.374617 10.24143,-9.254021 15.15247,-14.098895 9.4382,-9.435484 18.88071,-18.969461 26.74102,-29.795958 2.53089,-3.550981 5.20272,-7.128437 6.57253,-11.320583 0.79482,-2.529286 0.64988,-5.398694 -0.62105,-7.750525 -0.90401,-0.608864 -2.46558,-0.177868 -2.64942,0.977569 -0.61957,2.179672 -1.24385,4.369646 -2.10061,6.470965 -0.83988,1.98835 -2.13899,3.774497 -3.78732,5.169983 -3.34007,2.960615 -7.95993,4.635977 -12.42462,3.932521 -5.85098,-0.930543 -10.92244,-5.778503 -11.90934,-11.651757 -0.46517,-3.29545 1.83453,-6.625751 4.96314,-7.616348 3.70244,-1.44891 8.02524,-1.806982 11.85757,-2.886347 3.12427,-0.637301 9.15455,2.88611 11.97722,4.243952 1.56662,0.694924 0.3384,-1.367982 2.0251,-1.013475 -0.33169,-0.428358 -2.64437,-4.833264 -3.04985,-5.151341 -3.65435,-1.452473 -2.09036,-1.296198 -6.03771,-1.869885 -1.00946,-0.159561 -8.69063,-1.277752 -9.7132,-1.250628 z m -80.188073,70.193619 -0.03711,-0.002 z m -34.314453,8.810547 c -2.890983,1.43023 -5.578092,3.225872 -8.335769,4.889434 -4.912274,3.071232 -9.781923,6.219192 -14.484047,9.605182 -5.498525,4.20616 -10.480413,9.27355 -13.794806,15.40192 -2.481966,4.76468 -3.443304,10.16673 -3.646983,15.49239 -0.567825,8.26576 -0.682951,16.57163 -0.145185,24.84198 0.384951,4.66483 1.075283,9.37165 2.831183,13.73767 0.982923,2.09829 2.793509,3.97085 5.134514,4.43508 3.052208,0.74125 6.218652,0.086 9.184364,-0.73147 6.198939,-1.79746 11.968701,-4.74321 17.922099,-7.18436 8.445441,-3.63915 16.933481,-7.38007 25.947519,-9.38396 8.069727,-1.70201 16.451825,-1.27905 24.509647,0.26882 16.59273,2.96285 33.06521,6.56266 49.67064,9.45638 4.71795,0.79366 9.4459,1.56112 14.20736,2.04085 4.9489,0.37021 10.03,0.37015 14.82531,-1.06052 2.7565,-1.1228 4.41741,-4.17982 4.24713,-7.09604 0.077,-4.09121 -0.0681,-8.18238 -0.043,-12.27374 -0.078,-7.57645 -0.23868,-15.21247 -1.76941,-22.66006 -1.41315,-5.29234 -4.88128,-9.87063 -9.19111,-13.1751 -2.20974,-1.98209 -4.556,-4.01041 -5.7706,-6.79 -1.49154,-4.63076 -1.39825,-9.55709 -2.2757,-14.30643 -0.25224,-1.550999 -0.44457,-3.211033 -1.37529,-4.524645 -1.26322,-1.032361 -3.07791,-0.941364 -4.52477,-0.381541 -9.53201,2.382828 -18.79783,5.739786 -27.80351,9.650386 -1.43171,0.54018 -3.05533,0.15925 -4.29462,-0.67147 -1.2941,-0.67496 -2.88843,-0.99551 -4.26712,-0.37568 -1.9935,0.73407 -3.3949,2.42779 -4.6534,4.05907 -0.6444,0.76141 -1.73547,1.35207 -2.724,0.90337 -1.47694,-0.51585 -2.64661,-1.63845 -4.12083,-2.16343 -3.17354,-1.51184 -6.51338,-2.84486 -10.03795,-3.19387 -2.5565,0.0581 -4.80098,1.42425 -7.14402,2.27655 -1.558663,0.60671 -3.186441,1.22733 -4.884226,1.16681 -1.48816,-0.37095 -2.388748,-1.80931 -2.806739,-3.19249 -0.937978,-2.33844 -2.41024,-4.638514 -4.727925,-5.799079 -3.027768,-1.65866 -7.049122,-1.296474 -9.683039,0.957062 -1.423444,1.058812 -2.742618,2.443417 -4.543535,2.816367 -1.367289,0.0729 -2.47509,-0.985755 -3.120187,-2.090586 -0.850145,-1.261803 -2.061888,-2.257279 -3.444167,-2.88567 -1.516338,-0.817082 -3.094617,-1.546858 -4.738384,-2.059375 -0.04309,-0.0041 -0.08628,1.91e-4 -0.129414,1.95e-4 z m -33.851563,1.384765 c 0.06723,-0.05378 0.03469,-0.02776 0,0 z m 0.154297,0.847657 c -0.0371,0.04481 0.05957,-0.02121 0,0 z m 70.916016,0.61914 c -0.08686,-0.0035 -0.04338,-0.0017 0,0 z M 170.00391,198.42969 c -6.41638,1.2211 -12.62673,3.28567 -18.84814,5.23437 -16.2609,5.36183 -32.06916,11.96598 -48.01775,18.16895 -26.170304,10.37482 -52.386554,20.64322 -78.341749,31.54922 -2.280427,1.01906 -4.657534,2.16171 -6.201938,4.20187 -1.169333,1.75147 -1.076679,4.08013 -0.235242,5.94646 1.039691,2.82439 2.419735,5.5104 3.871378,8.14132 1.055893,1.73024 2.514281,3.42908 4.552777,3.95726 2.258694,0.57229 4.548904,-0.16889 6.737989,-0.69894 6.120182,-1.46048 12.256546,-2.85227 18.382141,-4.28988 42.089197,-9.79627 84.198744,-19.5128 126.170424,-29.80416 2.69957,-0.77395 5.5002,-1.75851 7.48276,-3.8419 1.93557,-2.24434 2.63699,-5.23152 3.04975,-8.09381 0.78331,-5.01694 1.09295,-10.24819 -0.31865,-15.18628 -1.78378,-6.30808 -6.48148,-11.83554 -12.63184,-14.23172 -1.79545,-0.70001 -3.72202,-1.08343 -5.65191,-1.05276 z" />
  </g>
</svg>
